<svg width="193" height="184" viewBox="0 0 193 184" fill="none" xmlns="http://www.w3.org/2000/svg">
<path d="M141.8 106.1C141.8 106.1 120.3 124.5 95 124.5C72.7 124.5 50 106.1 50 106.1C61.5722 95.2602 80.8098 87.5 96.5 87.5C110.5 87.5 129.15 94.2309 141.8 106.1Z" fill="#F4F4F4"/>
<path d="M78.8452 90.6241C78.8452 90.6241 79.641 109.131 94.4563 109.131C109.086 109.131 114.657 90.6241 114.657 90.6241C114.657 90.6241 107.254 87.7584 95.9554 87.8284C84.6566 87.8985 78.8452 90.6241 78.8452 90.6241Z" fill="#060809"/>
<path d="M18.2051 16.736C18.2051 16.736 26.4964 163.176 93.7157 176.65C160.935 190.124 177.222 8 177.222 8" stroke="#060809" stroke-width="4" stroke-miterlimit="10" stroke-linecap="round"/>
<path d="M8.87744 73.0023C8.87744 73.0023 47.5211 62.4894 103.636 62.9336C159.603 63.3778 184.625 69.1525 184.625 69.1525" stroke="#060809" stroke-width="4" stroke-miterlimit="10" stroke-linecap="round"/>
<path d="M49.7422 106.317C49.7422 106.317 69.7303 87.6606 96.9733 87.6606C121.699 87.6606 141.539 106.317 141.539 106.317" stroke="#060809" stroke-width="4" stroke-miterlimit="10" stroke-linecap="round"/>
<path d="M141.539 106.317C141.539 106.317 120.07 124.678 94.7521 124.678C72.395 124.678 49.5938 106.317 49.5938 106.317" stroke="#060809" stroke-width="4" stroke-miterlimit="10" stroke-linecap="round"/>
</svg>
