<svg xmlns="http://www.w3.org/2000/svg" viewBox="0 0 200 190">
    <path fill="#f4f4f4"
        d="M125.7 94.1a63 63 0 00-53.9.7c0-.3-22.4 14-22.4 14s24.3 19.5 48.2 19.5c27.1 0 50.1-19.5 50.1-19.5l-22-14.7z" />
    <path fill="#060809"
        d="M80.3 92.5s.9 19.6 16.7 19.6c15.7 0 21.6-19.6 21.6-19.6s-7.9-3-20-3c-12.1.1-18.3 3-18.3 3z" />
    <path fill="none" stroke="#060809" stroke-linecap="round" stroke-miterlimit="10" stroke-width="6.6"
        d="M15.4 14.1s8.9 155.3 80.8 169.6C168.1 198 185.6 4.8 185.6 4.8" />
    <path fill="none" stroke="#060809" stroke-linecap="round" stroke-miterlimit="10" stroke-width="6.6"
        d="M5.4 73.8s41.4-11.1 101.4-10.7c59.9.5 86.7 6.6 86.7 6.6M49.1 109.1s21.4-19.8 50.5-19.8c26.5 0 47.7 19.8 47.7 19.8m.1 0s-23 19.5-50.1 19.5c-23.9 0-48.3-19.5-48.3-19.5" />
</svg>